<svg xmlns="http://www.w3.org/2000/svg" width="24" height="24" fill="none" class="absolute inset-0 m-auto text-white" viewBox="0 0 24 24"><path stroke="currentColor" stroke-linecap="round" stroke-linejoin="round" stroke-width="1.5" d="M4.5 13.008a1.6 1.6 0 0 1-1.066 1.067c.51.156.91.556 1.065 1.067a1.6 1.6 0 0 1 1.065-1.067A1.6 1.6 0 0 1 4.5 13.008m11.87-7.434a1.6 1.6 0 0 1-1.065 1.066c.51.156.91.556 1.065 1.067a1.6 1.6 0 0 1 1.066-1.067 1.6 1.6 0 0 1-1.066-1.066M7.821 18.449h.01m4.982-14.75h-.01"/><rect width="2.5" height="22.02" x="3.387" y="5.141" stroke="currentColor" stroke-width="1.5" rx="1.25" transform="rotate(-44.536 3.387 5.14)"/><path fill="currentColor" d="m8.404 11.31 2.851-2.806 9.016 9.163a2 2 0 1 1-2.851 2.805z"/></svg>