<svg xmlns="http://www.w3.org/2000/svg" width="24" height="24" fill="none" class="absolute inset-0 bottom-[1px] left-0.5 m-auto text-white" viewBox="0 0 24 24"><path fill="currentColor" fill-rule="evenodd" d="M22.263 7.174a1.796 1.796 0 0 0-2.52-.249l-1.226 1.004c-.258.21-.376.534-.36.866q.003.058.003.116v6.401q0 .062-.003.122c-.017.332.101.654.358.865l1.214.998c.316.261.719.404 1.134.404.986 0 1.791-.802 1.794-1.789l.012-7.598a1.8 1.8 0 0 0-.406-1.14m-9.619-2.062H5.682c-2.602 0-4.35 1.828-4.35 4.55v5.4c0 2.722 1.748 4.55 4.35 4.55h6.961c2.604 0 4.353-1.828 4.353-4.55v-5.4c0-2.722-1.749-4.55-4.352-4.55" clip-rule="evenodd"/><rect width="16" height="15" x="1" y="5.112" fill="currentColor" rx="4"/></svg>